<svg xmlns="http://www.w3.org/2000/svg" version="1.0" width="980.000000pt" height="980.000000pt" viewBox="0 0 980.000000 980.000000" preserveAspectRatio="xMidYMid meet">

<g transform="translate(0.000000,980.000000) scale(0.100000,-0.100000)" fill="#ff7b22" stroke="none">
<path d="M4640 8770 c0 -6 27 -10 63 -10 44 0 58 3 47 10 -20 13 -110 13 -110 0z" fill="#ff7b22"/>
<path d="M4806 8770 c-10 -3 57 -7 148 -8 91 0 166 3 166 7 0 10 -287 11 -314 1z" fill="#ff7b22"/>
<path d="M5210 8771 c0 -5 -8 -12 -17 -14 -12 -3 -9 -5 8 -6 17 -1 26 4 26 14 0 8 -4 15 -9 15 -4 0 -8 -4 -8 -9z" fill="#ff7b22"/>
<path d="M4093 8753 c9 -2 25 -2 35 0 9 3 1 5 -18 5 -19 0 -27 -2 -17 -5z" fill="#ff7b22"/>
<path d="M4396 8748 c3 -4 -8 -7 -23 -7 -15 0 -62 -1 -103 -2 l-75 -2 70 -6 c60 -5 249 10 260 21 2 2 -27 3 -65 3 -37 0 -66 -3 -64 -7z" fill="#ff7b22"/>
<path d="M5295 8750 c11 -5 27 -9 35 -9 9 0 8 4 -5 9 -11 5 -27 9 -35 9 -9 0 -8 -4 5 -9z" fill="#ff7b22"/>
<path d="M5381 8745 c-35 -11 -69 -12 -170 -3 -72 6 -247 8 -406 5 -227 -5 -311 -10 -447 -31 -91 -13 -175 -23 -185 -21 -67 14 -93 13 -93 -1 0 -12 10 -14 48 -10 29 4 16 -1 -36 -14 -60 -14 -90 -16 -108 -10 -36 14 -41 12 -18 -5 15 -11 16 -14 4 -15 -9 0 -21 5 -28 12 -6 6 -15 8 -19 4 -4 -4 -1 -12 7 -17 11 -8 9 -9 -9 -4 -13 4 -21 3 -18 -2 7 -12 -158 -57 -174 -47 -7 4 -10 3 -6 -3 3 -5 -17 -18 -46 -28 -29 -10 -58 -20 -66 -23 -10 -4 -12 -1 -6 9 8 12 6 12 -8 0 -9 -7 -24 -11 -32 -7 -9 3 -32 -3 -53 -14 -20 -11 -44 -20 -52 -20 -15 -1 -71 -29 -58 -30 4 0 39 12 78 26 40 14 74 24 76 21 3 -2 -24 -14 -58 -27 -35 -13 -96 -38 -137 -57 -41 -18 -76 -31 -79 -28 -3 2 -10 -2 -16 -11 -9 -12 -17 -13 -37 -5 -19 7 -26 6 -26 -4 0 -7 7 -11 16 -9 9 3 -20 -14 -64 -36 -44 -23 -90 -48 -102 -56 -13 -8 -23 -10 -23 -4 0 5 -16 10 -35 10 -19 0 -35 -4 -35 -9 0 -4 11 -6 24 -4 37 8 40 -14 4 -33 -18 -9 -69 -39 -114 -65 -45 -27 -93 -49 -107 -49 -14 0 -29 -5 -32 -10 -4 -6 -11 -7 -17 -4 -7 4 -8 2 -4 -4 5 -8 15 -8 34 -2 l27 10 -23 -20 c-23 -19 -24 -19 -51 1 -16 12 -34 17 -44 13 -22 -8 -21 -16 4 -32 27 -17 38 -6 13 13 -10 8 -14 15 -8 15 6 0 18 -8 27 -18 16 -17 11 -22 -78 -90 -52 -39 -95 -67 -95 -62 0 6 5 10 12 10 6 0 8 3 5 6 -8 9 -38 -16 -32 -26 8 -13 -104 -100 -121 -93 -16 6 -19 23 -4 23 6 0 10 -5 10 -11 0 -5 5 -7 11 -3 8 4 7 9 -2 16 -10 7 -8 7 8 3 16 -4 25 0 33 14 6 11 23 27 38 35 25 14 25 15 5 16 -12 0 -31 -12 -42 -26 -11 -14 -24 -23 -29 -20 -5 3 -28 -8 -51 -25 -31 -22 -41 -35 -36 -48 5 -16 0 -18 -35 -16 -45 3 -62 -12 -37 -30 21 -15 22 -29 2 -21 -11 4 -15 0 -13 -11 2 -13 -5 -17 -29 -18 -17 0 -34 -3 -38 -6 -3 -4 8 -5 24 -3 25 3 29 0 24 -13 -4 -9 10 1 30 23 34 36 35 40 16 48 -10 5 -19 13 -19 18 0 11 14 10 27 -3 8 -8 13 -8 17 0 10 15 29 14 20 -1 -4 -7 5 -2 19 11 31 28 33 33 12 25 -8 -4 -15 -2 -15 4 0 15 32 24 44 12 7 -7 1 -19 -19 -40 -16 -16 -32 -30 -36 -30 -4 0 -37 -29 -73 -65 -36 -36 -69 -65 -73 -65 -4 0 -2 5 4 11 6 6 9 18 6 25 -4 10 0 12 13 7 11 -4 15 -3 10 5 -3 6 -15 10 -26 9 -21 -1 -26 -12 -10 -22 17 -10 -12 -32 -39 -29 -14 1 -29 0 -33 -2 -11 -7 10 -44 24 -44 6 0 3 9 -7 19 -18 21 -17 21 48 12 5 0 5 -6 2 -11 -4 -6 -10 -8 -15 -5 -5 3 -11 -3 -14 -13 -4 -10 -29 -40 -56 -65 -28 -26 -50 -52 -50 -59 0 -6 -3 -9 -6 -6 -3 4 -1 16 6 27 6 12 7 21 2 21 -5 0 -14 10 -19 23 -9 19 -10 17 -9 -18 1 -31 -2 -39 -15 -37 -9 1 -24 -7 -34 -18 -22 -24 -13 -27 10 -3 14 14 18 14 26 2 7 -12 9 -12 9 0 0 8 2 12 5 9 10 -10 -7 -37 -20 -31 -8 2 -29 -7 -48 -21 -19 -14 -39 -26 -44 -26 -6 0 -16 -7 -23 -15 -11 -13 -15 -13 -22 -3 -5 8 -6 1 -2 -17 8 -36 14 -45 14 -22 0 10 5 17 10 17 19 0 10 -31 -12 -39 -13 -5 -17 -10 -10 -15 6 -3 22 8 36 27 30 39 34 56 9 36 -14 -12 -16 -12 -11 1 3 8 17 15 31 15 15 -1 27 3 27 7 0 20 20 48 34 48 16 0 2 -24 -41 -72 -25 -29 -86 -106 -134 -173 -81 -110 -127 -170 -105 -138 4 7 6 19 3 26 -3 7 4 19 14 25 10 7 19 20 19 30 0 12 -8 8 -29 -17 -17 -19 -29 -37 -29 -40 4 -18 -17 -90 -32 -111 -9 -14 -36 -60 -59 -103 -24 -43 -45 -76 -48 -73 -3 3 2 17 11 31 9 14 14 35 11 47 -6 25 9 57 21 45 4 -3 1 -13 -6 -22 -7 -8 -8 -15 -4 -15 5 0 15 9 21 19 10 16 9 20 -5 26 -24 9 -44 -23 -36 -59 5 -23 3 -28 -9 -23 -11 4 -14 -3 -13 -36 1 -27 -3 -41 -10 -40 -7 1 -11 -3 -11 -10 0 -7 -1 -21 -2 -32 -2 -18 -3 -18 -16 5 l-15 25 6 -27 c3 -16 4 -28 0 -28 -3 0 -13 12 -21 28 -15 25 -14 15 2 -25 5 -12 3 -14 -7 -8 -9 6 -11 4 -6 -4 5 -7 14 -10 22 -7 10 4 7 -9 -10 -42 -13 -26 -31 -64 -41 -84 -9 -21 -22 -38 -27 -38 -6 0 -1 15 9 33 20 32 20 57 2 57 -6 0 -8 -4 -5 -9 3 -5 -1 -24 -9 -43 -10 -24 -11 -38 -4 -45 8 -8 6 -20 -5 -39 -8 -16 -15 -25 -16 -21 0 5 5 17 11 29 9 17 8 19 -8 16 -12 -2 -19 -14 -21 -37 -2 -22 0 -31 7 -26 6 3 2 -18 -10 -47 -12 -29 -28 -71 -36 -93 -17 -48 -28 -61 -19 -23 5 21 3 26 -7 22 -9 -3 -13 -20 -12 -52 1 -26 -1 -56 -6 -67 -5 -12 -8 -14 -8 -6 -1 12 -4 12 -13 3 -10 -10 -10 -15 1 -21 8 -6 10 -14 5 -22 -4 -8 -16 -41 -26 -74 -11 -35 -17 -47 -15 -28 2 18 -1 29 -6 26 -5 -3 -7 -21 -5 -40 2 -20 -6 -69 -18 -111 l-21 -75 1 56 c0 35 4 52 9 44 6 -8 7 -6 3 6 -3 10 -6 24 -6 30 -1 7 -10 -10 -20 -38 -11 -27 -18 -54 -16 -60 3 -5 5 -1 6 10 2 11 6 -4 10 -32 9 -61 -19 -210 -39 -206 -6 2 -11 -4 -11 -13 0 -8 4 -12 10 -9 5 3 10 -3 10 -14 0 -12 -5 -21 -11 -21 -6 0 -8 -8 -5 -17 3 -10 -1 -54 -9 -98 -14 -76 -14 -77 -10 -20 2 33 0 76 -4 95 -7 31 -8 27 -13 -35 -2 -38 -1 -87 4 -109 5 -22 4 -87 -2 -155 -12 -144 -13 -496 0 -656 9 -124 5 -179 -12 -153 -5 8 -6 2 -2 -17 4 -16 7 -35 7 -42 0 -28 17 1 18 30 1 18 3 24 6 14 3 -10 -1 -39 -8 -63 -10 -34 -15 -40 -21 -27 -6 15 -7 15 -7 -4 -1 -36 39 -31 40 5 2 26 2 26 6 2 8 -45 64 -325 69 -345 3 -15 1 -13 -9 5 -8 14 -18 52 -22 86 -7 66 -25 109 -25 62 0 -27 24 -130 35 -148 3 -5 6 -42 7 -82 1 -60 2 -67 9 -38 4 19 5 45 2 58 -3 12 -1 22 5 22 6 0 13 -15 17 -32 4 -18 16 -62 27 -98 11 -36 21 -72 23 -80 1 -8 9 -31 18 -51 9 -20 16 -59 15 -87 0 -28 3 -56 7 -61 11 -19 23 -12 18 9 -3 11 -3 20 -1 20 4 0 61 -144 63 -160 1 -3 11 -24 23 -47 12 -24 19 -49 15 -59 -4 -11 -3 -15 4 -11 7 5 9 -1 6 -15 -3 -16 -2 -19 4 -10 11 15 60 -82 55 -107 -2 -9 -1 -13 3 -9 6 6 95 -134 95 -149 0 -1 14 -25 30 -52 17 -27 28 -55 24 -64 -3 -8 0 -18 7 -23 9 -5 10 -2 6 12 -5 14 -2 12 12 -6 11 -13 18 -28 15 -31 -2 -4 2 -9 8 -12 10 -3 10 -8 -1 -21 -11 -13 -11 -20 -3 -28 7 -7 12 -8 12 -4 0 5 8 2 18 -5 15 -13 16 -12 3 3 -7 10 -17 15 -22 12 -5 -3 -9 -1 -9 5 0 28 22 15 54 -32 20 -28 43 -62 52 -74 12 -17 13 -26 4 -42 -6 -12 -7 -21 -2 -21 5 0 8 -17 7 -37 -1 -21 0 -41 2 -45 5 -10 33 2 33 14 0 7 -4 7 -12 0 -10 -8 -13 2 -14 44 -1 46 1 53 12 43 11 -9 12 -15 3 -26 -9 -11 -7 -19 11 -38 12 -13 19 -28 16 -33 -3 -5 2 -9 11 -8 13 1 17 -7 18 -36 0 -20 4 -40 8 -44 4 -5 5 -1 2 8 -4 9 -2 19 4 23 6 3 11 11 11 16 0 6 -5 7 -12 3 -7 -5 -9 -2 -6 8 3 8 -7 29 -23 48 -16 18 -29 38 -29 44 0 15 69 -66 70 -81 0 -7 5 -13 11 -13 7 0 8 -7 4 -18 -12 -31 -10 -35 14 -37 22 -2 23 -1 6 11 -10 8 -16 16 -13 19 3 3 33 -25 67 -64 56 -63 75 -91 52 -77 -5 3 -9 -6 -9 -19 1 -14 4 -28 9 -31 5 -3 6 3 2 13 -6 17 -5 17 15 -1 25 -22 30 -15 6 9 -9 9 -13 19 -9 23 3 4 13 -1 20 -12 8 -10 28 -33 44 -52 17 -18 31 -37 31 -41 -1 -5 -9 2 -19 14 l-19 23 2 -24 c0 -13 5 -22 9 -19 4 3 15 -1 24 -9 12 -9 15 -9 9 0 -15 24 4 11 57 -40 78 -77 154 -147 219 -202 32 -27 55 -53 53 -57 -3 -4 2 -15 12 -24 9 -10 18 -26 18 -37 1 -11 8 -23 15 -28 10 -6 9 -9 -1 -12 -8 -3 2 -4 21 -3 24 1 34 6 32 16 -5 20 -24 29 -46 23 -14 -5 -18 -2 -13 9 3 9 -1 21 -9 27 -8 7 -14 16 -14 21 0 5 24 -10 52 -34 29 -23 81 -62 116 -86 45 -32 59 -47 50 -53 -10 -7 -10 -8 2 -7 28 3 41 -1 35 -11 -3 -5 0 -7 8 -5 7 3 22 -3 32 -15 10 -11 24 -20 31 -20 24 0 22 -15 -2 -16 -14 -1 -21 2 -17 9 3 6 1 7 -5 3 -7 -4 -20 -2 -29 4 -17 11 -17 11 0 6 9 -3 17 -1 17 4 0 6 -9 10 -20 10 -15 0 -19 -6 -16 -22 3 -21 9 -23 59 -23 31 0 61 -5 68 -12 7 -7 18 -13 25 -13 6 0 17 -7 24 -15 14 -17 8 -19 -20 -5 -11 6 -30 15 -42 20 -23 11 -23 11 1 -10 13 -11 30 -20 38 -20 8 0 11 -4 8 -10 -4 -6 1 -7 11 -3 13 5 15 3 9 -7 -5 -9 -4 -11 4 -6 6 4 9 12 6 17 -11 17 20 9 45 -12 14 -11 20 -18 14 -15 -6 3 -11 -1 -11 -9 0 -10 7 -13 22 -9 12 3 43 -6 74 -21 59 -30 64 -44 7 -20 -26 11 -42 13 -56 5 -24 -13 -30 -13 -30 0 0 6 7 10 15 10 8 0 15 5 15 10 0 16 -15 12 -35 -10 -16 -17 -16 -20 -2 -26 8 -3 24 -1 35 5 22 12 49 5 70 -16 16 -15 56 -18 47 -3 -3 6 1 7 9 4 9 -3 13 -11 9 -17 -4 -6 0 -8 10 -4 19 7 47 -1 47 -13 0 -5 -6 -10 -12 -13 -7 -2 1 -2 17 0 25 3 27 2 13 -7 -26 -16 -22 -30 7 -30 14 0 25 4 25 9 0 5 -10 7 -22 5 l-23 -5 23 10 c18 8 35 4 91 -24 38 -19 71 -35 74 -35 2 0 22 -7 43 -16 30 -13 35 -18 22 -23 -14 -5 -13 -8 8 -18 22 -10 24 -10 14 3 -17 20 9 19 58 -2 55 -24 193 -68 322 -105 63 -17 118 -36 121 -42 4 -5 11 -7 17 -3 5 3 51 -3 101 -14 83 -18 407 -70 439 -70 7 0 11 -4 8 -9 -3 -5 11 -11 32 -14 20 -3 65 -10 99 -16 35 -5 78 -6 100 -1 36 8 37 8 18 -7 l-20 -16 20 8 c11 4 89 9 173 12 84 3 155 9 157 13 2 4 -102 7 -233 6 -130 -1 -258 3 -284 9 -35 8 27 10 255 10 289 0 495 7 527 18 8 3 76 15 150 27 74 12 189 35 255 52 171 43 169 43 160 28 -6 -9 -2 -10 16 -4 13 4 43 6 67 5 23 -1 42 2 42 6 0 5 -26 8 -57 7 -58 -1 -58 -1 -23 11 72 25 83 27 76 16 -5 -7 -1 -9 8 -5 9 3 16 10 16 15 0 5 25 16 56 25 31 9 76 25 101 36 24 11 47 17 50 14 3 -3 12 1 20 9 8 8 20 15 26 14 9 0 8 -2 0 -6 -20 -8 -15 -23 8 -23 15 0 19 5 14 19 -4 14 1 21 22 28 32 11 73 6 54 -7 -9 -5 -8 -9 4 -13 10 -4 14 -3 9 4 -4 7 1 9 15 4 13 -4 29 0 43 11 24 17 20 17 -32 -4 -13 -5 -13 -3 -1 11 12 15 11 17 -3 17 -11 0 -14 -5 -10 -12 5 -8 2 -9 -10 -5 -10 4 -21 7 -24 7 -4 0 19 14 52 31 41 21 62 27 69 20 6 -6 18 -11 26 -11 12 0 12 2 -2 12 -15 11 -4 19 79 63 53 28 103 49 111 47 10 -2 12 1 7 10 -4 7 -3 10 1 5 5 -4 18 1 29 11 36 32 127 83 137 77 5 -4 8 -1 7 7 -2 7 5 12 14 12 10 -1 15 2 13 7 -7 10 34 33 43 25 3 -4 -2 -12 -12 -19 -16 -12 -16 -13 3 -13 11 0 17 4 15 8 -3 4 8 14 23 22 28 15 28 15 4 16 -19 0 -8 12 55 57 43 31 111 83 151 115 40 32 74 58 75 56 2 -1 15 9 31 22 15 13 35 25 43 26 9 2 22 8 28 14 8 8 6 9 -9 4 -18 -6 -19 -5 -5 9 19 20 67 12 50 -8 -8 -9 -6 -14 6 -19 9 -4 19 -4 22 -1 3 3 0 5 -8 5 -10 0 -10 3 0 15 9 10 9 15 1 15 -6 0 -11 5 -11 11 0 6 7 8 16 5 12 -5 15 -2 10 10 -3 8 -6 18 -6 21 0 3 -9 -5 -19 -18 -11 -13 -22 -21 -25 -18 -9 8 112 121 123 115 5 -3 15 2 22 11 10 12 10 14 2 9 -23 -13 -13 9 17 38 17 16 33 26 36 23 4 -4 -1 -9 -10 -13 -9 -3 -16 -11 -16 -16 0 -6 8 -4 17 3 15 12 16 12 10 -3 -3 -10 -2 -18 4 -18 6 0 9 10 7 22 -2 19 2 23 27 24 49 2 55 3 55 15 0 8 -5 7 -16 -1 -12 -11 -18 -10 -31 3 -15 15 -17 15 -29 -1 -8 -9 -14 -12 -14 -7 0 6 27 37 60 70 33 33 60 55 60 49 0 -5 -12 -21 -27 -36 -40 -37 -54 -56 -45 -61 4 -3 13 1 20 9 7 8 10 14 6 14 -3 0 -1 7 6 15 7 9 21 13 30 10 9 -3 23 1 30 10 7 8 8 15 2 15 -5 0 -12 10 -15 22 -5 16 4 33 31 63 20 22 50 56 65 75 24 31 27 32 21 10 -6 -22 -5 -23 10 -11 9 7 16 20 16 27 0 8 7 14 16 14 8 0 13 4 10 9 -3 5 4 20 15 35 11 14 18 30 15 34 -7 11 63 108 76 104 5 -1 6 2 3 8 -4 6 -1 19 7 28 8 9 45 67 83 127 38 61 78 120 89 133 12 13 19 26 17 28 -7 10 22 63 32 57 6 -3 7 -1 3 6 -4 6 2 24 13 40 12 16 21 32 21 35 0 3 20 47 43 98 24 51 50 108 58 125 17 40 28 43 21 6 -2 -16 -2 -25 2 -21 11 9 14 42 6 53 -9 12 86 272 106 293 16 16 18 26 4 17 -13 -8 -13 -5 2 36 13 40 28 52 45 37 9 -7 13 -7 13 1 0 6 -4 11 -9 11 -17 0 -20 45 -7 95 11 45 13 47 18 22 3 -15 1 -30 -3 -33 -5 -3 -9 -10 -9 -17 0 -6 6 -2 14 8 8 11 12 23 9 28 -2 4 0 14 7 22 8 10 8 15 -3 22 -13 7 -11 27 13 143 16 74 32 162 36 195 4 33 9 54 11 48 7 -20 19 -15 31 11 6 15 8 47 4 83 -5 51 -7 54 -13 28 -6 -21 -7 -15 -4 20 13 152 17 597 6 723 -10 117 -10 145 2 181 8 22 11 44 6 47 -5 3 -9 32 -9 65 0 42 -4 59 -13 59 -10 0 -13 -15 -10 -57 2 -46 -1 -35 -17 47 -10 58 -26 136 -34 174 -8 38 -12 75 -9 83 3 7 0 13 -6 13 -6 0 -11 7 -11 15 0 8 5 15 10 15 6 0 10 7 10 15 0 18 -17 20 -22 3 -3 -7 -10 10 -17 38 -17 65 -119 381 -136 419 -7 17 -34 74 -59 128 -42 90 -48 122 -25 137 5 3 -1 11 -11 18 -12 7 -20 8 -20 2 0 -5 4 -10 10 -10 5 0 7 -7 3 -15 -4 -11 -17 6 -40 52 -19 37 -44 83 -54 101 -20 35 -19 40 4 17 13 -13 16 -13 21 0 3 8 2 14 -2 13 -4 -1 -17 1 -29 6 -23 7 -27 17 -23 46 1 8 -1 12 -6 8 -12 -12 -33 12 -27 29 4 9 2 14 -3 10 -6 -3 -19 11 -29 31 -11 20 -30 52 -44 70 -24 33 -24 34 -7 64 15 24 16 32 6 41 -10 9 -11 9 -6 0 7 -12 -13 -53 -25 -53 -13 0 -17 27 -7 41 8 11 9 10 4 -4 -4 -11 -2 -16 5 -12 14 10 6 28 -14 31 -11 1 -15 -2 -11 -9 15 -26 -15 11 -69 84 -35 48 -52 80 -47 88 5 9 10 9 14 3 3 -6 1 -12 -6 -14 -8 -3 -2 -12 15 -22 15 -10 27 -26 28 -35 0 -11 2 -12 6 -3 3 7 -5 24 -18 38 -21 23 -21 24 -3 25 17 0 17 1 -3 9 -17 7 -21 16 -19 43 3 38 -8 42 -40 17 -16 -14 -17 -13 -10 5 6 16 5 18 -5 8 -11 -11 -11 -15 0 -25 10 -11 14 -9 23 6 8 15 12 16 19 5 12 -20 11 -31 -3 -23 -7 4 -8 3 -4 -4 11 -18 -3 -34 -17 -20 -46 49 -108 128 -99 128 6 0 13 -6 15 -12 4 -10 6 -9 6 1 1 11 4 11 15 1 12 -9 15 -8 13 7 -1 15 -8 19 -34 18 -24 -2 -39 5 -58 27 -14 16 -23 33 -20 38 10 17 25 11 18 -7 -4 -11 -3 -14 5 -9 8 4 10 2 6 -7 -3 -8 -1 -18 4 -21 5 -3 9 9 9 28 -1 29 -4 33 -27 32 -14 0 -28 -5 -32 -11 -5 -7 -8 -6 -8 1 0 6 -39 51 -87 99 -68 68 -87 94 -88 118 -1 26 -6 30 -34 33 -23 3 -62 30 -144 101 -62 53 -114 98 -117 100 -6 5 30 33 42 33 4 0 8 -4 8 -10 0 -5 -7 -10 -15 -10 -8 0 -15 -5 -15 -11 0 -6 7 -9 14 -6 10 4 13 1 10 -7 -3 -8 0 -17 6 -21 8 -5 10 5 8 31 -3 38 -4 39 -43 39 -34 1 -40 4 -37 20 2 16 1 17 -7 5 -13 -19 5 -41 26 -33 11 4 14 2 9 -5 -4 -7 -12 -12 -18 -12 -18 0 -47 31 -42 44 3 7 -7 21 -21 30 -14 9 -24 20 -21 24 3 4 -5 8 -17 9 -12 0 -16 -1 -9 -4 6 -3 9 -10 6 -15 -4 -6 -2 -8 3 -5 6 4 13 0 17 -8 3 -8 12 -15 21 -15 8 0 15 -4 15 -10 0 -16 -9 -12 -54 22 -55 42 -67 58 -60 80 3 10 0 18 -6 18 -6 0 -8 4 -5 10 3 6 -1 7 -10 3 -12 -4 -13 -8 -5 -13 8 -5 7 -9 -5 -13 -9 -4 -27 0 -41 9 -30 20 -30 23 -1 18 20 -4 20 -4 2 4 -11 5 -25 7 -31 5 -6 -2 -17 3 -24 12 -12 14 -11 18 1 26 10 6 11 9 1 9 -7 0 -10 5 -7 10 3 6 2 10 -4 10 -5 0 -13 -4 -16 -10 -3 -5 -1 -10 6 -10 9 0 10 -3 2 -11 -7 -7 -26 -1 -64 24 -30 19 -74 45 -99 59 -196 109 -175 96 -167 105 4 3 16 -2 27 -12 11 -10 23 -16 26 -12 3 3 -6 13 -20 22 -18 12 -30 14 -39 7 -8 -7 -41 4 -112 38 -55 27 -105 53 -112 59 -7 6 -16 10 -20 9 -12 -4 -165 54 -159 60 3 2 20 -1 38 -9 17 -7 43 -12 55 -11 14 1 21 -2 18 -8 -3 -6 -2 -10 4 -10 5 0 12 4 16 9 7 12 -31 25 -45 16 -5 -3 -10 -2 -10 4 0 6 -6 8 -13 5 -8 -3 -20 2 -27 11 -7 8 -19 15 -26 15 -8 0 -14 4 -14 10 0 5 -7 7 -15 4 -21 -9 -19 -25 3 -17 12 4 14 3 7 -5 -7 -8 -27 -5 -70 9 -56 18 -105 49 -78 49 6 0 19 -7 27 -16 9 -8 20 -13 25 -10 5 4 11 1 13 -6 3 -7 7 -5 11 6 4 9 3 15 -1 12 -5 -3 -21 2 -37 10 -31 16 -61 11 -49 -8 5 -8 2 -9 -12 -4 -65 25 -309 87 -421 107 -72 13 -130 26 -128 29 2 3 -13 5 -33 3 l-37 -3 35 12 c30 10 32 12 13 15 -12 3 -31 -1 -42 -6 -11 -6 -35 -10 -53 -10 l-33 2 38 6 c21 3 38 10 38 16 1 15 -12 15 -60 0z m-195 -45 c1460 -114 2732 -1055 3263 -2414 541 -1387 226 -2960 -809 -4030 -592 -611 -1352 -1003 -2185 -1125 -655 -96 -1315 -22 -1930 216 -892 346 -1631 1026 -2050 1888 -904 1858 -168 4081 1670 5046 435 229 953 378 1445 418 152 12 447 13 596 1z m1930 -629 c0 -16 -3 -17 -14 -9 -12 10 -7 19 13 28 1 0 1 -9 1 -19z m459 -381 c10 -11 16 -20 13 -20 -3 0 -15 9 -28 20 -13 11 -19 20 -13 20 5 0 18 -9 28 -20z m1152 -2302 c-2 -13 -4 -5 -4 17 -1 22 1 32 4 23 2 -10 2 -28 0 -40z m5 -976 c3 -9 1 -26 -3 -37 -6 -15 -8 -11 -8 18 -1 40 4 48 11 19z m-763 -1861 c-13 -16 -28 -30 -32 -30 -4 -1 4 15 19 34 15 20 29 33 32 31 2 -3 -6 -18 -19 -35z m-169 -251 c0 -5 -4 -10 -10 -10 -5 0 -10 5 -10 10 0 6 5 10 10 10 6 0 10 -4 10 -10z m-5264 -475 c17 -16 14 -18 -10 -9 -9 3 -16 10 -16 15 0 13 9 11 26 -6z m2211 -801 c-3 -3 -12 -4 -19 -1 -8 3 -5 6 6 6 11 1 17 -2 13 -5z m126 -1 c-7 -2 -19 -2 -25 0 -7 3 -2 5 12 5 14 0 19 -2 13 -5z" fill="#ff7b22"/>
<path d="M4568 8519 c-1115 -108 -2110 -711 -2721 -1651 -290 -445 -472 -938 -549 -1483 -19 -136 -22 -205 -23 -465 0 -318 6 -396 51 -655 117 -682 449 -1348 922 -1848 596 -631 1312 -998 2192 -1124 180 -25 742 -25 915 0 456 67 821 180 1187 366 672 340 1221 881 1576 1551 198 374 324 779 388 1245 26 183 26 693 1 880 -67 496 -217 951 -448 1358 -76 133 -233 364 -335 492 -115 143 -409 438 -549 549 -563 447 -1194 706 -1903 781 -149 16 -556 18 -704 4z m607 -399 c634 -54 1242 -299 1755 -708 123 -98 396 -371 492 -492 335 -424 557 -906 653 -1416 66 -355 72 -774 14 -1125 -209 -1282 -1167 -2317 -2429 -2623 -324 -78 -730 -107 -1060 -76 -1415 133 -2582 1179 -2865 2569 -74 363 -85 787 -29 1141 112 711 428 1320 945 1826 530 517 1216 832 1964 903 130 12 420 12 560 1z" fill="#ff7b22"/>
<path d="M6345 7366 c-207 -46 -320 -77 -540 -153 -593 -202 -648 -217 -825 -218 -119 0 -145 3 -220 27 -125 39 -171 43 -223 20 -87 -39 -97 -120 -30 -254 69 -138 227 -263 392 -312 68 -20 203 -20 336 -1 105 15 265 20 265 8 0 -21 -54 -271 -61 -285 -14 -26 -147 -104 -219 -129 -92 -31 -240 -36 -444 -14 -90 10 -176 15 -191 11 -36 -9 -75 -53 -75 -86 0 -43 50 -109 186 -247 105 -106 141 -136 194 -161 91 -42 171 -56 296 -49 l105 5 -5 -27 c-3 -14 -17 -96 -31 -181 -36 -219 -42 -230 -127 -230 -24 0 -89 -9 -146 -20 -124 -24 -200 -25 -292 -4 -98 22 -172 71 -325 217 -144 137 -191 166 -267 167 -60 0 -71 17 -63 102 3 35 12 348 21 697 17 681 16 708 -31 801 -30 59 -102 125 -169 156 -90 41 -243 67 -375 62 -100 -3 -124 -7 -174 -30 -69 -33 -212 -168 -223 -212 -8 -35 11 -78 72 -158 108 -140 173 -310 195 -505 14 -127 7 -563 -16 -1033 -8 -168 -22 -494 -30 -725 -9 -231 -24 -631 -35 -890 -30 -710 -28 -739 46 -888 50 -98 172 -221 267 -267 84 -41 156 -49 207 -23 46 24 96 100 109 166 12 59 45 497 96 1282 19 297 36 547 38 555 1 8 40 -67 85 -165 100 -215 122 -255 176 -313 53 -58 108 -95 189 -127 76 -31 130 -83 146 -142 7 -24 11 -206 11 -502 0 -443 1 -467 20 -506 13 -27 61 -76 146 -150 162 -141 204 -171 264 -185 58 -14 99 -5 171 40 112 69 214 93 500 120 118 11 252 24 299 30 279 32 637 53 735 44 72 -7 130 10 156 46 10 14 41 115 68 225 163 661 264 1096 265 1141 0 45 -5 58 -49 120 -66 93 -175 200 -271 265 -124 84 -217 95 -477 59 -123 -17 -914 -121 -1372 -181 -176 -22 -206 -23 -228 -7 -9 7 -32 48 -52 92 l-35 78 37 -5 c21 -2 83 -12 138 -22 l100 -17 185 32 c1104 191 1409 230 1645 210 158 -13 194 -20 430 -87 144 -41 218 -57 263 -57 61 -1 65 1 98 36 29 32 34 45 34 86 0 99 -48 178 -149 245 -52 35 -288 180 -509 314 -12 8 -30 29 -39 48 -18 39 -18 42 93 389 30 92 57 194 60 225 16 156 -90 386 -206 446 -16 9 -50 19 -73 24 -66 12 -406 -5 -560 -28 -76 -12 -151 -21 -168 -21 l-29 0 0 147 c0 169 14 215 76 254 77 47 369 62 569 29 170 -28 200 -27 236 9 24 25 29 38 29 78 -1 120 -59 267 -142 358 -142 156 -315 203 -553 151z m103 -1504 c6 -9 12 -22 12 -29 0 -19 -169 -494 -185 -519 -11 -18 -30 -23 -115 -33 -55 -6 -132 -11 -169 -11 -91 0 -99 9 -83 98 7 37 21 131 32 209 10 79 22 148 26 155 32 57 62 70 284 122 148 35 175 36 198 8z m62 -1871 c8 -15 0 -80 -30 -258 -67 -394 -81 -453 -110 -474 -37 -27 -1037 -147 -1056 -127 -13 13 -52 291 -70 488 -11 130 27 220 113 261 42 21 107 29 558 75 602 61 581 60 595 35z" fill="#ff7b22"/>
<path d="M2723 5770 c-37 -15 -45 -47 -59 -229 -32 -408 -99 -695 -245 -1042 -73 -172 -164 -348 -235 -452 -77 -114 -104 -165 -104 -197 0 -48 237 -438 283 -465 86 -51 249 48 358 217 158 247 261 516 408 1069 91 344 111 477 111 754 0 202 -8 234 -67 268 -17 10 -114 33 -224 52 -213 39 -196 37 -226 25z" fill="#ff7b22"/>
<path d="M5540 8740 c-21 -7 -21 -8 -5 -9 11 0 27 4 35 9 18 11 5 11 -30 0z" fill="#ff7b22"/>
<path d="M5644 8736 c11 -9 24 -16 30 -16 12 0 7 5 -24 19 -24 11 -24 11 -6 -3z" fill="#ff7b22"/>
<path d="M4128 8723 c6 -2 18 -2 25 0 6 3 1 5 -13 5 -14 0 -19 -2 -12 -5z" fill="#ff7b22"/>
<path d="M5590 8720 c12 -8 12 -10 1 -10 -8 0 -12 -2 -9 -5 3 -3 13 -3 22 1 19 7 11 24 -12 24 -15 0 -15 -2 -2 -10z" fill="#ff7b22"/>
<path d="M4208 8713 c12 -2 32 -2 45 0 12 2 2 4 -23 4 -25 0 -35 -2 -22 -4z" fill="#ff7b22"/>
<path d="M5538 8713 c6 -2 18 -2 25 0 6 3 1 5 -13 5 -14 0 -19 -2 -12 -5z" fill="#ff7b22"/>
<path d="M5640 8700 c0 -5 33 -13 73 -20 39 -6 83 -15 97 -20 23 -8 59 -18 133 -34 19 -5 26 -3 22 4 -3 5 -21 11 -38 11 -30 2 -30 2 8 9 35 6 32 7 -26 7 -36 0 -75 6 -87 12 -11 6 -34 11 -49 11 -16 0 -34 5 -41 12 -13 13 -92 20 -92 8z" fill="#ff7b22"/>
<path d="M3837 8669 c7 -7 15 -10 18 -7 3 3 -2 9 -12 12 -14 6 -15 5 -6 -5z" fill="#ff7b22"/>
<path d="M3999 8667 c4 -4 18 -3 32 2 23 9 22 9 -8 8 -18 -1 -28 -6 -24 -10z" fill="#ff7b22"/>
<path d="M5918 8673 c6 -2 18 -2 25 0 6 3 1 5 -13 5 -14 0 -19 -2 -12 -5z" fill="#ff7b22"/>
<path d="M3855 8650 l-20 -9 20 0 c11 0 27 4 35 9 13 9 13 10 0 9 -8 0 -24 -4 -35 -9z" fill="#ff7b22"/>
<path d="M3757 8610 c-6 -23 -3 -24 25 -9 17 9 18 13 7 20 -21 13 -26 11 -32 -11z" fill="#ff7b22"/>
<path d="M5991 8621 c-12 -8 -9 -11 11 -16 32 -8 57 3 37 16 -18 11 -30 11 -48 0z" fill="#ff7b22"/>
<path d="M3614 8585 c7 -7 23 -15 36 -19 23 -7 24 -6 7 7 -13 11 -15 16 -5 19 7 3 -1 5 -19 5 -24 0 -28 -3 -19 -12z" fill="#ff7b22"/>
<path d="M6208 8573 c7 -3 16 -2 19 1 4 3 -2 6 -13 5 -11 0 -14 -3 -6 -6z" fill="#ff7b22"/>
<path d="M3398 8513 c7 -3 16 -2 19 1 4 3 -2 6 -13 5 -11 0 -14 -3 -6 -6z" fill="#ff7b22"/>
<path d="M6394 8502 c4 -6 -1 -15 -10 -20 -15 -8 -15 -10 0 -15 11 -4 15 -3 11 4 -4 6 3 7 19 3 33 -8 33 -1 0 21 -15 9 -24 12 -20 7z" fill="#ff7b22"/>
<path d="M3388 8493 c7 -3 16 -2 19 1 4 3 -2 6 -13 5 -11 0 -14 -3 -6 -6z" fill="#ff7b22"/>
<path d="M3350 8461 c-21 -4 -34 -12 -32 -19 1 -8 -5 -13 -15 -12 -10 1 -25 2 -33 1 -12 -1 -12 -3 2 -12 13 -7 30 -3 68 16 27 14 50 28 50 30 0 3 -1 4 -2 4 -2 -1 -19 -5 -38 -8z" fill="#ff7b22"/>
<path d="M6440 8450 c0 -5 4 -10 9 -10 6 0 13 5 16 10 3 6 -1 10 -9 10 -9 0 -16 -4 -16 -10z" fill="#ff7b22"/>
<path d="M6475 8430 c3 -5 11 -10 16 -10 6 0 7 5 4 10 -3 6 -11 10 -16 10 -6 0 -7 -4 -4 -10z" fill="#ff7b22"/>
<path d="M6523 8433 c4 -3 7 -11 7 -19 0 -11 9 -13 43 -8 55 9 75 19 53 27 -9 4 -16 1 -16 -5 0 -10 -36 -8 -80 5 -8 2 -12 2 -7 0z" fill="#ff7b22"/>
<path d="M6578 8433 c7 -3 16 -2 19 1 4 3 -2 6 -13 5 -11 0 -14 -3 -6 -6z" fill="#ff7b22"/>
<path d="M3231 8411 c-10 -6 -9 -10 5 -15 20 -8 25 -4 16 11 -4 7 -13 9 -21 4z" fill="#ff7b22"/>
<path d="M6589 8386 c17 -21 51 -40 51 -29 0 5 -15 17 -32 28 -29 17 -31 17 -19 1z" fill="#ff7b22"/>
<path d="M3140 8350 c-8 -5 -10 -10 -5 -10 6 0 17 5 25 10 8 5 11 10 5 10 -5 0 -17 -5 -25 -10z" fill="#ff7b22"/>
<path d="M6727 8343 c9 -7 19 -9 22 -4 3 4 13 10 21 13 8 3 -2 5 -23 4 -32 -1 -35 -3 -20 -13z" fill="#ff7b22"/>
<path d="M3060 8334 c21 -13 21 -15 5 -11 -15 3 -21 -1 -21 -14 0 -16 3 -15 37 4 21 12 36 23 34 26 -3 2 -21 5 -42 7 -38 3 -38 3 -13 -12z" fill="#ff7b22"/>
<path d="M6773 8319 c9 -5 17 -17 17 -26 0 -14 -2 -14 -20 2 -11 10 -20 13 -20 7 0 -16 37 -35 45 -22 10 17 -5 50 -23 50 -16 -1 -15 -2 1 -11z" fill="#ff7b22"/>
<path d="M2905 8254 l-30 -25 32 15 c17 9 35 20 38 26 11 18 -10 10 -40 -16z" fill="#ff7b22"/>
<path d="M6816 8273 c-15 -4 -13 -8 14 -24 18 -11 34 -18 37 -15 3 2 -5 10 -17 16 -29 15 -18 25 12 10 22 -11 22 -10 4 4 -11 9 -22 15 -25 15 -3 -1 -14 -3 -25 -6z" fill="#ff7b22"/>
<path d="M2960 8254 c-14 -8 -18 -14 -10 -14 8 1 24 7 34 15 24 19 10 18 -24 -1z" fill="#ff7b22"/>
<path d="M2915 8230 c-3 -5 -1 -10 4 -10 6 0 11 5 11 10 0 6 -2 10 -4 10 -3 0 -8 -4 -11 -10z" fill="#ff7b22"/>
<path d="M6910 8224 c0 -14 21 -42 35 -48 9 -3 14 -2 10 3 -3 5 1 12 7 15 7 3 3 3 -9 0 -18 -4 -23 -1 -23 15 0 12 -4 21 -10 21 -5 0 -10 -3 -10 -6z" fill="#ff7b22"/>
<path d="M2885 8210 c3 -5 8 -10 11 -10 2 0 4 5 4 10 0 6 -5 10 -11 10 -5 0 -7 -4 -4 -10z" fill="#ff7b22"/>
<path d="M2860 8190 c-9 -6 -10 -10 -3 -10 6 0 15 5 18 10 8 12 4 12 -15 0z" fill="#ff7b22"/>
<path d="M2822 8171 c-7 -4 -24 -6 -38 -3 -14 2 -24 0 -24 -7 0 -16 43 -14 66 4 20 15 18 20 -4 6z" fill="#ff7b22"/>
<path d="M2643 8068 c4 -10 -3 -22 -18 -32 -26 -17 -39 -21 -31 -8 2 4 -3 8 -13 8 -10 0 -18 -5 -18 -11 0 -18 56 -10 77 11 15 14 17 23 9 34 -9 13 -10 13 -6 -2z" fill="#ff7b22"/>
<path d="M7240 8015 c30 -17 48 -19 32 -3 -6 6 -22 13 -34 15 -22 3 -22 2 2 -12z" fill="#ff7b22"/>
<path d="M2565 7990 c-3 -6 1 -7 9 -4 18 7 21 14 7 14 -6 0 -13 -4 -16 -10z" fill="#ff7b22"/>
<path d="M2433 7948 c9 -5 7 -11 -8 -23 -11 -9 -15 -15 -10 -12 26 10 85 38 85 40 0 1 -18 2 -40 2 -22 1 -34 -2 -27 -7z" fill="#ff7b22"/>
<path d="M7391 7853 c35 -30 44 -30 44 -1 1 20 -5 23 -36 24 l-36 1 28 -24z m35 -10 c-7 -7 -26 7 -26 19 0 6 6 6 15 -2 9 -7 13 -15 11 -17z" fill="#ff7b22"/>
<path d="M7460 7790 c7 -4 20 -6 28 -2 11 4 14 1 9 -11 -3 -8 0 -21 8 -27 11 -9 13 -6 11 17 -3 24 -8 28 -36 30 -21 1 -29 -2 -20 -7z" fill="#ff7b22"/>
<path d="M7650 7615 c13 -14 24 -25 24 -25 1 0 2 12 3 27 0 16 -2 21 -7 13 -5 -8 -9 -9 -14 -1 -4 6 -12 11 -18 11 -6 0 -1 -11 12 -25z" fill="#ff7b22"/>
<path d="M2080 7576 c0 -15 -4 -25 -9 -22 -5 4 -11 0 -14 -6 -3 -10 -8 -9 -22 2 -17 14 -18 14 -6 -7 12 -23 31 -31 31 -13 0 6 6 10 13 10 7 0 18 9 24 19 10 15 9 22 -2 31 -13 10 -15 8 -15 -14z" fill="#ff7b22"/>
<path d="M7710 7545 c7 -8 16 -12 21 -10 4 3 13 -4 19 -15 6 -11 16 -20 22 -20 6 0 3 9 -6 19 -10 11 -16 23 -13 28 3 4 -8 9 -25 10 -25 2 -28 0 -18 -12z" fill="#ff7b22"/>
<path d="M1925 7470 c-3 -6 1 -7 9 -4 18 7 21 14 7 14 -6 0 -13 -4 -16 -10z" fill="#ff7b22"/>
<path d="M7895 7340 c11 -14 21 -27 22 -29 2 -2 3 6 3 19 0 13 -3 20 -7 17 -3 -4 -13 -1 -22 5 -10 8 -8 3 4 -12z" fill="#ff7b22"/>
<path d="M1772 7217 c7 -14 7 -22 -2 -27 -7 -4 -11 -12 -9 -18 2 -5 16 7 30 27 l25 36 -27 0 c-24 1 -26 -2 -17 -18z" fill="#ff7b22"/>
<path d="M8040 7214 c0 -8 5 -12 10 -9 6 4 8 11 5 16 -9 14 -15 11 -15 -7z" fill="#ff7b22"/>
<path d="M8058 7173 c-6 -24 6 -51 16 -35 3 6 2 20 -2 33 -9 22 -9 22 -14 2z" fill="#ff7b22"/>
<path d="M8147 7173 c-10 -9 -9 -23 1 -23 5 0 9 7 9 15 0 17 -1 18 -10 8z" fill="#ff7b22"/>
<path d="M1695 7140 c-10 -11 -14 -20 -9 -20 5 0 15 9 22 20 7 11 11 20 9 20 -2 0 -12 -9 -22 -20z" fill="#ff7b22"/>
<path d="M1735 7150 c3 -5 8 -10 11 -10 2 0 4 5 4 10 0 6 -5 10 -11 10 -5 0 -7 -4 -4 -10z" fill="#ff7b22"/>
<path d="M1621 7024 c-1 -11 -4 -24 -8 -28 -4 -4 -8 -21 -9 -39 -2 -27 0 -28 9 -11 6 10 15 22 20 26 7 4 7 17 0 40 -8 23 -11 27 -12 12z m2 -39 c-3 -9 -8 -14 -10 -11 -3 3 -2 9 2 15 9 16 15 13 8 -4z" fill="#ff7b22"/>
<path d="M8195 6980 c-3 -5 -1 -10 4 -10 6 0 11 5 11 10 0 6 -2 10 -4 10 -3 0 -8 -4 -11 -10z" fill="#ff7b22"/>
<path d="M8226 6964 c-8 -21 -7 -56 2 -71 4 -6 7 11 7 38 0 27 -1 49 -1 49 -1 0 -5 -7 -8 -16z" fill="#ff7b22"/>
<path d="M8190 6940 c0 -8 5 -22 10 -30 9 -13 10 -13 10 0 0 8 -5 22 -10 30 -9 13 -10 13 -10 0z" fill="#ff7b22"/>
<path d="M1525 6909 c-4 -6 -5 -12 -2 -15 2 -3 7 2 10 11 7 17 1 20 -8 4z" fill="#ff7b22"/>
<path d="M1521 6864 c0 -11 3 -14 6 -6 3 7 2 16 -1 19 -3 4 -6 -2 -5 -13z" fill="#ff7b22"/>
<path d="M8240 6850 c0 -11 6 -19 13 -17 6 1 11 -6 11 -15 -1 -10 2 -16 6 -13 5 3 10 -1 13 -7 2 -7 4 -1 3 14 0 14 -4 24 -7 22 -4 -2 -9 5 -12 16 -7 26 -27 26 -27 0z" fill="#ff7b22"/>
<path d="M8305 6829 c-4 -6 -5 -12 -2 -15 2 -3 7 2 10 11 7 17 1 20 -8 4z" fill="#ff7b22"/>
<path d="M8320 6703 c0 -5 5 -15 10 -23 8 -12 10 -11 10 8 0 12 -4 22 -10 22 -5 0 -10 -3 -10 -7z" fill="#ff7b22"/>
<path d="M8384 6666 c-3 -8 -1 -22 4 -32 7 -13 9 -10 8 15 -1 34 -4 38 -12 17z" fill="#ff7b22"/>
<path d="M8345 6660 c-3 -5 -1 -10 4 -10 6 0 11 5 11 10 0 6 -2 10 -4 10 -3 0 -8 -4 -11 -10z" fill="#ff7b22"/>
<path d="M1317 6593 c-12 -11 -8 -23 8 -23 8 0 15 7 15 15 0 16 -12 20 -23 8z" fill="#ff7b22"/>
<path d="M8427 6483 c3 -7 6 -13 8 -13 2 0 5 6 8 13 3 8 -1 14 -8 14 -7 0 -11 -6 -8 -14z" fill="#ff7b22"/>
<path d="M8444 6458 c-4 -13 -2 -24 5 -26 6 -2 11 -11 11 -20 0 -13 2 -14 13 -3 10 11 9 14 -1 18 -6 3 -9 10 -6 15 5 7 2 8 -6 3 -9 -5 -10 -2 -5 14 3 11 4 21 1 21 -2 0 -8 -10 -12 -22z" fill="#ff7b22"/>
<path d="M1296 6404 c-4 -9 -4 -19 -1 -22 3 -3 5 0 5 8 0 10 3 10 14 1 12 -10 13 -8 9 8 -6 25 -19 27 -27 5z" fill="#ff7b22"/>
<path d="M8476 6392 c-8 -14 8 -55 28 -71 15 -12 15 -10 1 23 -8 20 -15 39 -14 42 2 11 -9 15 -15 6z" fill="#ff7b22"/>
<path d="M1292 6352 c9 -10 8 -16 -2 -22 -8 -5 -12 -12 -8 -15 8 -8 38 23 38 40 0 8 -9 13 -19 12 -16 -1 -18 -4 -9 -15z" fill="#ff7b22"/>
<path d="M8531 6310 c-1 -35 14 -58 23 -34 3 9 4 19 1 22 -3 3 -6 -1 -6 -9 -1 -8 -5 0 -9 16 -7 28 -8 28 -9 5z" fill="#ff7b22"/>
<path d="M8510 6288 c0 -19 24 -67 35 -72 9 -3 7 7 -7 32 -25 43 -28 47 -28 40z" fill="#ff7b22"/>
<path d="M1208 6194 c-4 -28 -2 -71 4 -68 3 2 8 -4 10 -13 3 -10 4 3 4 29 -1 40 -13 78 -18 52z m9 -26 c-3 -8 -6 -5 -6 6 -1 11 2 17 5 13 3 -3 4 -12 1 -19z" fill="#ff7b22"/>
<path d="M8564 6183 c4 -7 3 -13 -3 -13 -6 0 -8 -7 -5 -15 4 -8 9 -15 13 -15 10 0 7 38 -4 47 -4 5 -5 2 -1 -4z" fill="#ff7b22"/>
<path d="M8576 6105 c4 -11 12 -39 18 -62 17 -62 23 -60 21 7 -1 33 -5 63 -9 67 -4 5 -5 -4 -1 -20 9 -35 0 -35 -20 1 -9 15 -13 18 -9 7z" fill="#ff7b22"/>
<path d="M8625 6012 c1 -28 3 -54 6 -56 8 -8 9 63 0 85 -6 17 -8 10 -6 -29z" fill="#ff7b22"/>
<path d="M8620 5933 c0 -4 5 -15 10 -23 8 -13 10 -13 10 2 0 9 -4 20 -10 23 -5 3 -10 3 -10 -2z" fill="#ff7b22"/>
<path d="M8680 5791 c-5 -11 -10 -30 -9 -43 1 -18 3 -17 8 8 4 17 11 36 15 42 4 7 5 12 2 12 -3 0 -10 -9 -16 -19z" fill="#ff7b22"/>
<path d="M8704 5786 c-3 -8 -4 -23 -2 -33 3 -11 6 -6 9 15 6 34 2 42 -7 18z" fill="#ff7b22"/>
<path d="M1121 5764 c0 -11 3 -14 6 -6 3 7 2 16 -1 19 -3 4 -6 -2 -5 -13z" fill="#ff7b22"/>
<path d="M8686 5720 c-3 -8 -2 -28 3 -45 7 -24 9 -25 10 -8 1 12 6 23 11 25 7 2 5 11 -4 23 -12 17 -16 17 -20 5z m11 -22 c-3 -8 -6 -5 -6 6 -1 11 2 17 5 13 3 -3 4 -12 1 -19z" fill="#ff7b22"/>
<path d="M1100 5700 c0 -12 -7 -32 -16 -45 -8 -13 -14 -36 -11 -52 4 -27 4 -27 6 5 0 17 4 32 9 32 8 0 32 49 32 67 0 7 -4 13 -10 13 -5 0 -10 -9 -10 -20z" fill="#ff7b22"/>
<path d="M8704 5635 c-3 -8 -4 -20 -2 -27 3 -7 7 -1 10 15 6 29 1 36 -8 12z" fill="#ff7b22"/>
<path d="M1052 5615 c0 -16 2 -22 5 -12 2 9 2 23 0 30 -3 6 -5 -1 -5 -18z" fill="#ff7b22"/>
<path d="M1041 5474 c0 -11 3 -14 6 -6 3 7 2 16 -1 19 -3 4 -6 -2 -5 -13z" fill="#ff7b22"/>
<path d="M8782 5390 c0 -14 2 -19 5 -12 2 6 2 18 0 25 -3 6 -5 1 -5 -13z" fill="#ff7b22"/>
<path d="M8750 5340 c0 -22 2 -40 4 -40 2 0 6 18 8 40 2 22 0 40 -4 40 -5 0 -8 -18 -8 -40z" fill="#ff7b22"/>
<path d="M1051 5314 c0 -11 3 -14 6 -6 3 7 2 16 -1 19 -3 4 -6 -2 -5 -13z" fill="#ff7b22"/>
<path d="M1041 5274 c0 -11 3 -14 6 -6 3 7 2 16 -1 19 -3 4 -6 -2 -5 -13z" fill="#ff7b22"/>
<path d="M8791 5254 c0 -11 3 -14 6 -6 3 7 2 16 -1 19 -3 4 -6 -2 -5 -13z" fill="#ff7b22"/>
<path d="M8754 5235 c-3 -8 -4 -20 -1 -27 3 -7 6 -3 6 10 1 15 5 21 13 16 7 -4 8 -3 4 4 -10 16 -15 15 -22 -3z" fill="#ff7b22"/>
<path d="M8779 5179 c0 -22 -1 -22 -8 -4 -5 11 -9 -110 -10 -270 -1 -159 -2 -297 -3 -305 0 -8 0 -31 1 -50 2 -29 4 -32 11 -15 7 17 9 14 10 -15 1 -27 3 -31 9 -16 8 21 3 66 -8 66 -4 0 -7 91 -7 203 0 111 3 189 7 172 6 -28 7 -27 8 13 0 23 -3 42 -9 42 -5 0 -9 21 -9 48 l2 47 8 -40 c6 -29 7 -19 3 35 -3 53 -1 71 6 60 8 -11 9 -7 4 15 -9 39 -14 44 -15 14z" fill="#ff7b22"/>
<path d="M980 5141 c0 -25 6 -27 13 -6 4 8 2 17 -3 20 -6 4 -10 -3 -10 -14z" fill="#ff7b22"/>
<path d="M1026 5138 c-10 -40 -7 -458 4 -458 6 0 10 87 10 240 0 132 -2 240 -4 240 -2 0 -6 -10 -10 -22z" fill="#ff7b22"/>
<path d="M8782 4865 c0 -16 2 -22 5 -12 2 9 2 23 0 30 -3 6 -5 -1 -5 -18z" fill="#ff7b22"/>
<path d="M982 4710 c0 -19 2 -27 5 -17 2 9 2 25 0 35 -3 9 -5 1 -5 -18z" fill="#ff7b22"/>
<path d="M8782 4620 c0 -14 2 -19 5 -12 2 6 2 18 0 25 -3 6 -5 1 -5 -13z" fill="#ff7b22"/>
<path d="M1041 4574 c0 -11 3 -14 6 -6 3 7 2 16 -1 19 -3 4 -6 -2 -5 -13z" fill="#ff7b22"/>
<path d="M1041 4514 c0 -11 3 -14 6 -6 3 7 2 16 -1 19 -3 4 -6 -2 -5 -13z" fill="#ff7b22"/>
<path d="M1052 4465 c0 -16 2 -22 5 -12 2 9 2 23 0 30 -3 6 -5 -1 -5 -18z" fill="#ff7b22"/>
<path d="M8761 4454 c0 -11 3 -14 6 -6 3 7 2 16 -1 19 -3 4 -6 -2 -5 -13z" fill="#ff7b22"/>
<path d="M8791 4454 c0 -11 3 -14 6 -6 3 7 2 16 -1 19 -3 4 -6 -2 -5 -13z" fill="#ff7b22"/>
<path d="M1061 4273 c0 -6 -4 -20 -7 -30 -5 -14 -4 -15 5 -7 7 7 11 20 8 30 -3 11 -5 14 -6 7z" fill="#ff7b22"/>
<path d="M8710 4269 c0 -5 4 -8 9 -5 5 4 12 0 14 -6 3 -8 6 -6 6 5 1 9 -6 17 -14 17 -8 0 -15 -5 -15 -11z" fill="#ff7b22"/>
<path d="M1041 4215 c0 -5 4 -19 9 -30 7 -17 9 -17 9 -2 1 20 17 23 24 5 3 -7 6 -8 6 -3 0 6 -4 17 -9 25 -8 12 -11 13 -19 1 -7 -11 -9 -11 -14 0 -3 8 -5 10 -6 4z" fill="#ff7b22"/>
<path d="M8706 4205 c-9 -26 -7 -32 5 -12 6 10 9 21 6 23 -2 3 -7 -2 -11 -11z" fill="#ff7b22"/>
<path d="M8696 4140 c4 -19 11 -60 15 -90 l8 -55 -4 65 c-2 36 -9 76 -14 90 -10 22 -10 21 -5 -10z" fill="#ff7b22"/>
<path d="M8676 4052 c-4 -41 -5 -76 -2 -80 3 -3 6 12 7 34 0 31 2 35 9 19 7 -17 9 -15 8 10 0 17 -3 44 -7 60 -6 24 -9 16 -15 -43z" fill="#ff7b22"/>
<path d="M1060 4055 c0 -8 4 -15 10 -15 5 0 7 7 4 15 -4 8 -8 15 -10 15 -2 0 -4 -7 -4 -15z" fill="#ff7b22"/>
<path d="M1122 3950 c0 -14 2 -19 5 -12 2 6 2 18 0 25 -3 6 -5 1 -5 -13z" fill="#ff7b22"/>
<path d="M1121 3874 c0 -11 3 -14 6 -6 3 7 2 16 -1 19 -3 4 -6 -2 -5 -13z" fill="#ff7b22"/>
<path d="M8620 3855 c0 -5 5 -17 10 -25 5 -8 10 -10 10 -5 0 6 -5 17 -10 25 -5 8 -10 11 -10 5z" fill="#ff7b22"/>
<path d="M1174 3827 c3 -10 6 -29 6 -42 0 -12 6 -25 14 -28 11 -5 13 0 6 23 -4 16 -13 37 -20 47 -11 17 -11 17 -6 0z" fill="#ff7b22"/>
<path d="M8609 3776 c8 -9 10 -24 6 -37 -6 -19 -5 -20 7 -8 18 16 12 45 -9 54 -13 4 -14 3 -4 -9z" fill="#ff7b22"/>
<path d="M1205 3720 c-3 -5 3 -26 14 -47 14 -27 20 -32 20 -18 0 11 -6 29 -14 39 -8 10 -12 23 -9 27 3 5 3 9 0 9 -3 0 -8 -4 -11 -10z" fill="#ff7b22"/>
<path d="M1200 3660 c0 -8 5 -22 10 -30 9 -13 10 -13 10 0 0 8 -5 22 -10 30 -9 13 -10 13 -10 0z" fill="#ff7b22"/>
<path d="M8557 3649 c-4 -16 -3 -18 9 -8 7 6 11 15 8 20 -8 13 -11 11 -17 -12z" fill="#ff7b22"/>
<path d="M1230 3616 c0 -9 5 -16 10 -16 6 0 10 4 10 9 0 6 -4 13 -10 16 -5 3 -10 -1 -10 -9z" fill="#ff7b22"/>
<path d="M8546 3585 c8 -37 14 -45 14 -19 0 10 -5 26 -10 34 -8 11 -9 7 -4 -15z" fill="#ff7b22"/>
<path d="M8522 3551 c-7 -19 -7 -33 -1 -36 5 -4 9 2 9 12 1 14 4 13 15 -7 18 -31 18 -25 1 24 l-13 38 -11 -31z" fill="#ff7b22"/>
<path d="M1286 3495 c-6 -18 10 -67 27 -77 6 -4 8 -11 3 -15 -4 -4 -14 1 -22 11 -8 11 -14 15 -14 9 0 -5 9 -18 20 -28 10 -9 18 -22 17 -27 -1 -6 8 -14 21 -19 27 -10 29 2 2 19 -11 6 -19 20 -18 30 3 36 -2 53 -14 46 -8 -5 -9 0 -6 14 4 14 2 20 -4 16 -6 -4 -8 1 -3 15 7 24 0 29 -9 6z" fill="#ff7b22"/>
<path d="M8500 3501 c0 -5 5 -13 10 -16 6 -3 10 -2 10 4 0 5 -4 13 -10 16 -5 3 -10 2 -10 -4z" fill="#ff7b22"/>
<path d="M8487 3463 c-11 -10 -8 -43 3 -43 6 0 10 11 10 25 0 26 -2 29 -13 18z" fill="#ff7b22"/>
<path d="M8446 3351 c4 -17 3 -21 -6 -16 -8 5 -11 4 -7 -2 3 -5 -3 -25 -15 -43 -16 -28 -17 -32 -3 -20 9 8 22 26 27 40 l11 25 7 -25 c5 -15 8 -18 9 -8 1 9 3 22 4 30 2 7 2 9 -1 4 -3 -5 -11 2 -19 15 l-14 24 7 -24z" fill="#ff7b22"/>
<path d="M1328 3323 c7 -3 16 -2 19 1 4 3 -2 6 -13 5 -11 0 -14 -3 -6 -6z" fill="#ff7b22"/>
<path d="M1369 3313 c-5 -28 -3 -100 3 -97 4 3 11 -3 17 -13 8 -16 10 -14 16 10 4 15 5 31 1 34 -3 4 -6 -5 -7 -18 0 -17 -5 -10 -15 21 -7 25 -12 51 -9 58 2 6 2 12 0 12 -3 0 -6 -3 -6 -7z" fill="#ff7b22"/>
<path d="M8462 3260 c-7 -11 -8 -20 -3 -20 9 0 24 30 18 36 -1 2 -8 -6 -15 -16z" fill="#ff7b22"/>
<path d="M8367 3194 c-10 -19 -17 -40 -17 -47 0 -7 8 4 17 23 10 19 21 38 26 41 5 4 5 9 0 12 -5 4 -17 -10 -26 -29z" fill="#ff7b22"/>
<path d="M1422 3180 c0 -14 2 -19 5 -12 2 6 2 18 0 25 -3 6 -5 1 -5 -13z" fill="#ff7b22"/>
<path d="M8385 3170 c-4 -17 -5 -34 -2 -36 3 -3 8 9 12 26 4 17 5 34 2 36 -3 3 -8 -9 -12 -26z" fill="#ff7b22"/>
<path d="M1371 3174 c0 -11 3 -14 6 -6 3 7 2 16 -1 19 -3 4 -6 -2 -5 -13z" fill="#ff7b22"/>
<path d="M8325 3110 c-3 -5 -1 -10 4 -10 6 0 11 5 11 10 0 6 -2 10 -4 10 -3 0 -8 -4 -11 -10z" fill="#ff7b22"/>
<path d="M1466 3095 c-3 -9 -10 -14 -15 -11 -5 3 -7 -4 -3 -16 5 -21 5 -21 15 3 l10 24 7 -25 c7 -20 8 -21 9 -5 0 11 -3 26 -8 33 -7 11 -9 10 -15 -3z" fill="#ff7b22"/>
<path d="M8292 3028 c-26 -44 -36 -78 -23 -78 6 0 11 7 11 16 0 9 8 23 18 30 13 9 27 64 16 64 -1 0 -11 -15 -22 -32z m9 -21 c-10 -9 -11 -8 -5 6 3 10 9 15 12 12 3 -3 0 -11 -7 -18z" fill="#ff7b22"/>
<path d="M1500 3041 c0 -5 5 -13 10 -16 6 -3 10 -2 10 4 0 5 -4 13 -10 16 -5 3 -10 2 -10 -4z" fill="#ff7b22"/>
<path d="M1508 2999 c16 -6 22 -14 18 -27 -7 -22 17 -58 32 -48 17 10 15 20 -8 46 -11 12 -18 26 -16 29 3 4 -7 7 -22 8 -26 2 -27 2 -4 -8z m48 -67 c-4 -3 -11 0 -16 8 -15 24 -11 33 6 15 9 -9 13 -19 10 -23z" fill="#ff7b22"/>
<path d="M8237 2953 c-4 -3 -7 -11 -7 -17 0 -6 5 -5 12 2 6 6 9 14 7 17 -3 3 -9 2 -12 -2z" fill="#ff7b22"/>
<path d="M8302 2940 c0 -14 2 -19 5 -12 2 6 2 18 0 25 -3 6 -5 1 -5 -13z" fill="#ff7b22"/>
<path d="M8221 2897 c6 -10 8 -21 5 -25 -3 -3 -6 -1 -6 3 0 5 -7 0 -16 -11 -13 -16 -15 -16 -10 -1 7 22 -1 22 -13 -1 -8 -14 -6 -18 10 -19 10 -1 19 3 19 9 0 7 4 7 13 0 10 -8 12 -2 12 27 0 23 -4 38 -12 38 -9 0 -9 -5 -2 -20z" fill="#ff7b22"/>
<path d="M1620 2840 c0 -5 5 -10 11 -10 5 0 7 5 4 10 -3 6 -8 10 -11 10 -2 0 -4 -4 -4 -10z" fill="#ff7b22"/>
<path d="M1600 2812 c0 -4 10 -9 22 -9 18 -2 20 0 8 7 -18 12 -30 13 -30 2z" fill="#ff7b22"/>
<path d="M8132 2783 c-12 -13 -22 -33 -22 -43 0 -10 -4 -22 -10 -25 -5 -3 -10 -14 -10 -23 0 -19 20 15 38 64 l10 29 2 -30 c2 -27 3 -26 10 10 4 22 7 41 6 42 -1 1 -11 -10 -24 -24z" fill="#ff7b22"/>
<path d="M1610 2781 c0 -6 4 -13 10 -16 6 -3 7 1 4 9 -7 18 -14 21 -14 7z" fill="#ff7b22"/>
<path d="M1689 2750 c-6 -20 -3 -60 3 -60 5 0 4 -9 -2 -20 -6 -11 -8 -20 -6 -20 3 0 12 12 20 28 8 15 15 21 16 15 0 -7 5 -13 11 -13 8 0 8 5 -1 15 -7 8 -17 12 -23 8 -6 -4 -8 0 -5 9 4 8 2 21 -3 29 -5 8 -9 12 -10 9z" fill="#ff7b22"/>
<path d="M8127 2703 c-10 -9 -9 -23 2 -23 5 0 11 7 15 15 5 15 -5 20 -17 8z" fill="#ff7b22"/>
<path d="M8048 2653 c-25 -30 -28 -41 -13 -46 9 -4 12 -1 9 7 -3 8 -1 17 5 21 6 3 11 -1 11 -9 0 -8 4 -18 10 -21 7 -4 7 3 0 19 -6 17 -6 26 0 26 6 0 10 5 10 10 0 15 -15 12 -32 -7z" fill="#ff7b22"/>
<path d="M7884 2449 c-4 -8 -3 -9 4 -5 8 5 12 -3 12 -23 0 -17 4 -31 8 -31 11 0 3 58 -8 65 -5 3 -12 0 -16 -6z" fill="#ff7b22"/>
<path d="M1922 2413 c1 -28 3 -31 16 -20 13 10 15 9 9 -5 -8 -22 11 -34 26 -19 9 9 8 11 -6 5 -12 -4 -16 -2 -12 7 2 8 -4 25 -15 39 l-19 25 1 -32z" fill="#ff7b22"/>
<path d="M7866 2414 c-10 -25 1 -29 14 -5 6 12 7 21 1 21 -5 0 -12 -7 -15 -16z" fill="#ff7b22"/>
<path d="M7822 2369 c-9 -14 -10 -19 -2 -14 9 5 10 1 5 -16 -4 -13 -4 -21 0 -17 7 7 18 68 12 68 -1 0 -8 -9 -15 -21z" fill="#ff7b22"/>
<path d="M7826 2293 c-6 -14 -5 -15 5 -6 7 7 10 15 7 18 -3 3 -9 -2 -12 -12z" fill="#ff7b22"/>
<path d="M2163 2152 c2 -12 7 -25 12 -29 4 -5 5 -2 1 5 -4 6 -3 12 3 12 5 0 11 -6 14 -12 2 -7 7 -10 11 -7 3 3 -5 16 -19 29 -25 24 -25 24 -22 2z" fill="#ff7b22"/>
<path d="M7635 2159 c4 -5 1 -16 -5 -24 -9 -11 -7 -14 16 -12 15 1 29 8 30 15 1 7 0 8 -3 2 -7 -15 -23 -12 -17 4 3 7 -2 16 -11 20 -10 3 -14 2 -10 -5z" fill="#ff7b22"/>
<path d="M2241 2073 c0 -11 3 -13 6 -5 2 6 9 9 14 6 6 -3 5 -12 -3 -22 -12 -15 -11 -16 5 -3 13 10 15 17 6 27 -16 19 -29 17 -28 -3z" fill="#ff7b22"/>
<path d="M7543 2082 c-28 -18 -18 -37 20 -38 40 -1 47 11 20 32 -21 16 -24 16 -40 6z m37 -22 c0 -4 -11 -7 -24 -7 -19 0 -22 2 -13 12 12 13 37 9 37 -5z" fill="#ff7b22"/>
<path d="M2320 2012 c0 -7 6 -12 13 -12 7 0 8 -3 2 -8 -22 -15 -12 -28 20 -28 19 1 31 3 27 6 -4 3 -19 16 -34 29 -16 14 -28 19 -28 13z" fill="#ff7b22"/>
<path d="M2404 1911 c-1 -20 1 -31 3 -24 2 7 12 9 21 6 15 -6 16 -5 2 12 -14 17 -13 18 3 12 22 -8 13 9 -11 22 -14 8 -17 4 -18 -28z" fill="#ff7b22"/>
<path d="M7388 1933 c-10 -2 -18 -9 -18 -14 0 -6 8 -5 20 1 11 6 20 13 20 15 0 3 -1 4 -2 4 -2 -1 -11 -3 -20 -6z" fill="#ff7b22"/>
<path d="M7410 1905 c-11 -13 -10 -14 4 -9 9 3 16 10 16 15 0 13 -6 11 -20 -6z" fill="#ff7b22"/>
<path d="M7321 1884 c-19 -8 -32 -17 -29 -19 5 -5 68 23 68 31 0 5 0 5 -39 -12z" fill="#ff7b22"/>
<path d="M7238 1825 c-23 -20 -25 -24 -9 -22 11 1 18 4 15 8 -2 4 6 15 18 23 12 9 18 16 13 16 -6 0 -22 -11 -37 -25z" fill="#ff7b22"/>
<path d="M7265 1821 c-3 -5 -2 -12 3 -15 5 -3 9 1 9 9 0 17 -3 19 -12 6z" fill="#ff7b22"/>
<path d="M2566 1803 c-4 -10 -4 -14 0 -10 4 4 13 2 21 -4 8 -7 13 -8 13 -1 0 5 -6 15 -14 21 -11 9 -15 8 -20 -6z" fill="#ff7b22"/>
<path d="M7160 1760 c-19 -16 -31 -29 -26 -30 5 0 18 7 28 17 10 9 21 13 25 9 4 -4 1 -12 -7 -17 -13 -9 -13 -10 0 -6 8 2 15 15 15 30 1 15 1 27 0 27 0 0 -16 -13 -35 -30z" fill="#ff7b22"/>
<path d="M2578 1758 c17 -18 25 -20 31 -10 5 9 14 10 32 3 l24 -10 -27 0 c-15 -1 -30 -5 -33 -11 -8 -13 7 -13 40 0 22 8 25 13 16 24 -14 17 -51 28 -51 15 0 -5 -7 -9 -15 -9 -8 0 -15 5 -15 10 0 6 -5 10 -12 10 -7 0 -2 -10 10 -22z" fill="#ff7b22"/>
<path d="M7093 1715 c-9 -25 4 -29 17 -6 7 15 7 21 0 21 -6 0 -13 -7 -17 -15z" fill="#ff7b22"/>
<path d="M7060 1650 c0 -5 15 -10 33 -10 24 0 28 3 17 10 -20 13 -50 13 -50 0z" fill="#ff7b22"/>
<path d="M6924 1602 c-8 -5 -5 -12 10 -23 20 -15 21 -15 22 7 2 24 -11 30 -32 16z" fill="#ff7b22"/>
<path d="M6841 1549 c-16 -17 -40 -32 -54 -32 -14 -1 -23 -5 -20 -9 2 -5 -6 -8 -19 -8 -13 0 -32 -7 -42 -15 -17 -13 -17 -15 -4 -15 9 0 20 5 24 11 3 6 15 9 25 6 11 -3 19 -1 19 5 0 6 6 8 14 5 8 -3 20 1 26 8 7 8 16 13 21 12 5 -1 15 9 22 23 11 20 20 25 48 22 25 -1 30 0 19 8 -26 17 -50 11 -79 -21z" fill="#ff7b22"/>
<path d="M6643 1449 c-38 -11 -53 -29 -23 -29 12 0 19 -4 16 -8 -3 -5 13 -9 35 -10 29 -2 39 1 39 13 0 8 -8 15 -17 15 -15 0 -16 -2 -3 -10 12 -8 11 -10 -6 -10 -11 0 -29 6 -39 14 -17 12 -15 14 19 20 20 4 41 4 46 1 6 -3 10 -1 10 4 0 13 -33 13 -77 0z" fill="#ff7b22"/>
<path d="M3125 1411 c-3 -5 8 -9 25 -9 21 1 27 4 18 9 -17 11 -35 11 -43 0z" fill="#ff7b22"/>
<path d="M6519 1383 c-13 -17 -13 -17 6 -3 11 8 22 16 24 17 2 2 0 3 -6 3 -6 0 -17 -8 -24 -17z" fill="#ff7b22"/>
<path d="M3280 1378 c14 -14 110 -56 110 -49 0 5 -15 15 -32 24 -36 16 -86 32 -78 25z" fill="#ff7b22"/>
<path d="M3280 1351 c0 -5 14 -14 30 -20 17 -5 30 -8 30 -6 0 3 -13 11 -30 20 -16 9 -30 11 -30 6z" fill="#ff7b22"/>
<path d="M6396 1332 c-3 -4 4 -9 15 -9 23 -2 25 3 4 10 -8 4 -16 3 -19 -1z" fill="#ff7b22"/>
<path d="M3523 1278 c15 -5 25 -14 21 -19 -7 -11 7 -11 24 0 10 6 5 11 -19 20 -17 6 -37 11 -43 10 -6 0 1 -5 17 -11z" fill="#ff7b22"/>
<path d="M6239 1263 c-7 -10 -9 -15 -5 -11 5 4 16 2 24 -5 12 -9 16 -9 19 1 3 6 12 12 21 13 14 0 13 2 -3 9 -30 13 -41 12 -56 -7z" fill="#ff7b22"/>
<path d="M6385 1270 c-3 -5 -1 -10 4 -10 6 0 11 5 11 10 0 6 -2 10 -4 10 -3 0 -8 -4 -11 -10z" fill="#ff7b22"/>
<path d="M3483 1263 c9 -2 23 -2 30 0 6 3 -1 5 -18 5 -16 0 -22 -2 -12 -5z" fill="#ff7b22"/>
<path d="M3600 1235 c0 -11 9 -15 31 -13 17 1 33 7 36 12 3 5 1 6 -5 2 -6 -3 -13 -2 -17 4 -10 16 -45 12 -45 -5z" fill="#ff7b22"/>
<path d="M6198 1243 c7 -3 16 -2 19 1 4 3 -2 6 -13 5 -11 0 -14 -3 -6 -6z" fill="#ff7b22"/>
<path d="M3680 1220 c0 -9 39 -25 46 -18 2 3 -7 10 -21 16 -14 6 -25 7 -25 2z" fill="#ff7b22"/>
<path d="M3731 1189 c-39 -23 -41 -35 -3 -15 15 8 40 12 56 9 18 -4 27 -2 23 4 -12 20 -46 21 -76 2z" fill="#ff7b22"/>
<path d="M3680 1190 c0 -5 5 -10 11 -10 5 0 7 5 4 10 -3 6 -8 10 -11 10 -2 0 -4 -4 -4 -10z" fill="#ff7b22"/>
<path d="M3755 1170 c-3 -5 1 -10 10 -10 9 0 13 5 10 10 -3 6 -8 10 -10 10 -2 0 -7 -4 -10 -10z" fill="#ff7b22"/>
<path d="M3811 1171 c-10 -7 -7 -9 12 -8 14 1 23 5 20 10 -6 9 -15 9 -32 -2z" fill="#ff7b22"/>
<path d="M3868 1168 c5 -5 16 -8 23 -6 8 3 3 7 -10 11 -17 4 -21 3 -13 -5z" fill="#ff7b22"/>
<path d="M5910 1170 c-8 -5 -25 -10 -37 -10 -13 0 -23 -4 -23 -9 0 -22 21 -20 56 4 34 23 38 37 4 15z" fill="#ff7b22"/>
<path d="M3920 1150 c0 -5 5 -10 10 -10 6 0 10 5 10 10 0 6 -4 10 -10 10 -5 0 -10 -4 -10 -10z" fill="#ff7b22"/>
<path d="M5820 1140 c0 -5 -15 -11 -32 -11 -19 -1 -25 -3 -15 -6 24 -6 67 5 67 17 0 6 -4 10 -10 10 -5 0 -10 -4 -10 -10z" fill="#ff7b22"/>
<path d="M4012 1119 c-30 -11 -19 -29 16 -28 l27 1 -30 8 c-20 5 -24 8 -10 9 25 2 59 21 35 20 -8 0 -25 -4 -38 -10z" fill="#ff7b22"/>
<path d="M4070 1110 c-13 -8 -13 -10 2 -10 9 0 23 -2 31 -5 8 -4 14 0 14 10 0 17 -24 20 -47 5z" fill="#ff7b22"/>
<path d="M5730 1109 c20 -7 18 -8 -14 -4 -46 5 -42 -4 8 -15 21 -4 34 -4 30 1 -3 5 7 10 23 10 l28 1 -30 8 c-16 4 -39 8 -50 8 -16 0 -15 -2 5 -9z" fill="#ff7b22"/>
<path d="M4145 1100 c-3 -5 -2 -10 4 -10 5 0 13 5 16 10 3 6 2 10 -4 10 -5 0 -13 -4 -16 -10z" fill="#ff7b22"/>
<path d="M5648 1103 c7 -3 16 -2 19 1 4 3 -2 6 -13 5 -11 0 -14 -3 -6 -6z" fill="#ff7b22"/>
<path d="M5638 1083 c7 -3 16 -2 19 1 4 3 -2 6 -13 5 -11 0 -14 -3 -6 -6z" fill="#ff7b22"/>
<path d="M4320 1063 c0 -8 12 -13 29 -13 16 0 41 -2 57 -4 16 -2 20 -1 10 1 -14 4 -16 7 -6 13 8 5 -7 9 -39 11 -36 3 -51 0 -51 -8z" fill="#ff7b22"/>
<path d="M5410 1060 c-12 -8 -11 -10 8 -10 12 0 22 5 22 10 0 13 -11 13 -30 0z" fill="#ff7b22"/>
<path d="M4450 1053 c0 -5 15 -9 33 -10 26 -1 28 0 12 7 -26 11 -45 12 -45 3z" fill="#ff7b22"/>
<path d="M5323 1053 c9 -2 23 -2 30 0 6 3 -1 5 -18 5 -16 0 -22 -2 -12 -5z" fill="#ff7b22"/>
<path d="M5215 1039 c-23 -6 -18 -7 20 -3 36 3 46 2 35 -5 -18 -13 -1 -14 18 -2 11 7 10 10 -3 15 -20 7 -30 6 -70 -5z" fill="#ff7b22"/>
<path d="M4473 1023 c20 -2 54 -2 75 0 20 2 3 4 -38 4 -41 0 -58 -2 -37 -4z" fill="#ff7b22"/>
<path d="M4630 1010 c8 -5 20 -10 25 -10 6 0 3 5 -5 10 -8 5 -19 10 -25 10 -5 0 -3 -5 5 -10z" fill="#ff7b22"/>
<path d="M5183 1013 c15 -2 37 -2 50 0 12 2 0 4 -28 4 -27 0 -38 -2 -22 -4z" fill="#ff7b22"/>
</g>
</svg>